<?xml version="1.0" encoding="utf-8" standalone="no"?>
<!DOCTYPE svg PUBLIC "-//W3C//DTD SVG 1.1//EN"
  "http://www.w3.org/Graphics/SVG/1.1/DTD/svg11.dtd">
<!-- Created with matplotlib (https://matplotlib.org/) -->
<svg height="360pt" version="1.1" viewBox="0 0 576 360" width="576pt" xmlns="http://www.w3.org/2000/svg" xmlns:xlink="http://www.w3.org/1999/xlink">
 <defs>
  <style type="text/css">
*{stroke-linecap:butt;stroke-linejoin:round;}
  </style>
 </defs>
 <g id="figure_1">
  <g id="patch_1">
   <path d="M 0 360 
L 576 360 
L 576 0 
L 0 0 
z
" style="fill:#ffffff;"/>
  </g>
  <g id="axes_1">
   <g id="patch_2">
    <path d="M 44.66 318.04 
L 562.005 318.04 
L 562.005 26.88 
L 44.66 26.88 
z
" style="fill:#ffffff;"/>
   </g>
   <g id="matplotlib.axis_1">
    <g id="xtick_1">
     <g id="line2d_1">
      <path clip-path="url(#p5a5d954a08)" d="M 44.66 318.04 
L 44.66 26.88 
" style="fill:none;stroke:#8c8c8c;stroke-dasharray:1.11,0.48;stroke-dashoffset:0;stroke-width:0.3;"/>
     </g>
     <g id="line2d_2">
      <defs>
       <path d="M 0 0 
L 0 3.5 
" id="m9019b64a39" style="stroke:#000000;stroke-width:0.8;"/>
      </defs>
      <g>
       <use style="stroke:#000000;stroke-width:0.8;" x="44.66" xlink:href="#m9019b64a39" y="318.04"/>
      </g>
     </g>
     <g id="text_1">
      <!-- 0 -->
      <defs>
       <path d="M 31.78125 66.40625 
Q 24.171875 66.40625 20.328125 58.90625 
Q 16.5 51.421875 16.5 36.375 
Q 16.5 21.390625 20.328125 13.890625 
Q 24.171875 6.390625 31.78125 6.390625 
Q 39.453125 6.390625 43.28125 13.890625 
Q 47.125 21.390625 47.125 36.375 
Q 47.125 51.421875 43.28125 58.90625 
Q 39.453125 66.40625 31.78125 66.40625 
z
M 31.78125 74.21875 
Q 44.046875 74.21875 50.515625 64.515625 
Q 56.984375 54.828125 56.984375 36.375 
Q 56.984375 17.96875 50.515625 8.265625 
Q 44.046875 -1.421875 31.78125 -1.421875 
Q 19.53125 -1.421875 13.0625 8.265625 
Q 6.59375 17.96875 6.59375 36.375 
Q 6.59375 54.828125 13.0625 64.515625 
Q 19.53125 74.21875 31.78125 74.21875 
z
" id="DejaVuSans-48"/>
      </defs>
      <g transform="translate(41.47875 332.638438)scale(0.1 -0.1)">
       <use xlink:href="#DejaVuSans-48"/>
      </g>
     </g>
    </g>
    <g id="xtick_2">
     <g id="line2d_3">
      <path clip-path="url(#p5a5d954a08)" d="M 109.328125 318.04 
L 109.328125 26.88 
" style="fill:none;stroke:#8c8c8c;stroke-dasharray:1.11,0.48;stroke-dashoffset:0;stroke-width:0.3;"/>
     </g>
     <g id="line2d_4">
      <g>
       <use style="stroke:#000000;stroke-width:0.8;" x="109.328125" xlink:href="#m9019b64a39" y="318.04"/>
      </g>
     </g>
     <g id="text_2">
      <!-- 1 -->
      <defs>
       <path d="M 12.40625 8.296875 
L 28.515625 8.296875 
L 28.515625 63.921875 
L 10.984375 60.40625 
L 10.984375 69.390625 
L 28.421875 72.90625 
L 38.28125 72.90625 
L 38.28125 8.296875 
L 54.390625 8.296875 
L 54.390625 0 
L 12.40625 0 
z
" id="DejaVuSans-49"/>
      </defs>
      <g transform="translate(106.146875 332.638438)scale(0.1 -0.1)">
       <use xlink:href="#DejaVuSans-49"/>
      </g>
     </g>
    </g>
    <g id="xtick_3">
     <g id="line2d_5">
      <path clip-path="url(#p5a5d954a08)" d="M 173.99625 318.04 
L 173.99625 26.88 
" style="fill:none;stroke:#8c8c8c;stroke-dasharray:1.11,0.48;stroke-dashoffset:0;stroke-width:0.3;"/>
     </g>
     <g id="line2d_6">
      <g>
       <use style="stroke:#000000;stroke-width:0.8;" x="173.99625" xlink:href="#m9019b64a39" y="318.04"/>
      </g>
     </g>
     <g id="text_3">
      <!-- 2 -->
      <defs>
       <path d="M 19.1875 8.296875 
L 53.609375 8.296875 
L 53.609375 0 
L 7.328125 0 
L 7.328125 8.296875 
Q 12.9375 14.109375 22.625 23.890625 
Q 32.328125 33.6875 34.8125 36.53125 
Q 39.546875 41.84375 41.421875 45.53125 
Q 43.3125 49.21875 43.3125 52.78125 
Q 43.3125 58.59375 39.234375 62.25 
Q 35.15625 65.921875 28.609375 65.921875 
Q 23.96875 65.921875 18.8125 64.3125 
Q 13.671875 62.703125 7.8125 59.421875 
L 7.8125 69.390625 
Q 13.765625 71.78125 18.9375 73 
Q 24.125 74.21875 28.421875 74.21875 
Q 39.75 74.21875 46.484375 68.546875 
Q 53.21875 62.890625 53.21875 53.421875 
Q 53.21875 48.921875 51.53125 44.890625 
Q 49.859375 40.875 45.40625 35.40625 
Q 44.1875 33.984375 37.640625 27.21875 
Q 31.109375 20.453125 19.1875 8.296875 
z
" id="DejaVuSans-50"/>
      </defs>
      <g transform="translate(170.815 332.638438)scale(0.1 -0.1)">
       <use xlink:href="#DejaVuSans-50"/>
      </g>
     </g>
    </g>
    <g id="xtick_4">
     <g id="line2d_7">
      <path clip-path="url(#p5a5d954a08)" d="M 238.664375 318.04 
L 238.664375 26.88 
" style="fill:none;stroke:#8c8c8c;stroke-dasharray:1.11,0.48;stroke-dashoffset:0;stroke-width:0.3;"/>
     </g>
     <g id="line2d_8">
      <g>
       <use style="stroke:#000000;stroke-width:0.8;" x="238.664375" xlink:href="#m9019b64a39" y="318.04"/>
      </g>
     </g>
     <g id="text_4">
      <!-- 3 -->
      <defs>
       <path d="M 40.578125 39.3125 
Q 47.65625 37.796875 51.625 33 
Q 55.609375 28.21875 55.609375 21.1875 
Q 55.609375 10.40625 48.1875 4.484375 
Q 40.765625 -1.421875 27.09375 -1.421875 
Q 22.515625 -1.421875 17.65625 -0.515625 
Q 12.796875 0.390625 7.625 2.203125 
L 7.625 11.71875 
Q 11.71875 9.328125 16.59375 8.109375 
Q 21.484375 6.890625 26.8125 6.890625 
Q 36.078125 6.890625 40.9375 10.546875 
Q 45.796875 14.203125 45.796875 21.1875 
Q 45.796875 27.640625 41.28125 31.265625 
Q 36.765625 34.90625 28.71875 34.90625 
L 20.21875 34.90625 
L 20.21875 43.015625 
L 29.109375 43.015625 
Q 36.375 43.015625 40.234375 45.921875 
Q 44.09375 48.828125 44.09375 54.296875 
Q 44.09375 59.90625 40.109375 62.90625 
Q 36.140625 65.921875 28.71875 65.921875 
Q 24.65625 65.921875 20.015625 65.03125 
Q 15.375 64.15625 9.8125 62.3125 
L 9.8125 71.09375 
Q 15.4375 72.65625 20.34375 73.4375 
Q 25.25 74.21875 29.59375 74.21875 
Q 40.828125 74.21875 47.359375 69.109375 
Q 53.90625 64.015625 53.90625 55.328125 
Q 53.90625 49.265625 50.4375 45.09375 
Q 46.96875 40.921875 40.578125 39.3125 
z
" id="DejaVuSans-51"/>
      </defs>
      <g transform="translate(235.483125 332.638438)scale(0.1 -0.1)">
       <use xlink:href="#DejaVuSans-51"/>
      </g>
     </g>
    </g>
    <g id="xtick_5">
     <g id="line2d_9">
      <path clip-path="url(#p5a5d954a08)" d="M 303.3325 318.04 
L 303.3325 26.88 
" style="fill:none;stroke:#8c8c8c;stroke-dasharray:1.11,0.48;stroke-dashoffset:0;stroke-width:0.3;"/>
     </g>
     <g id="line2d_10">
      <g>
       <use style="stroke:#000000;stroke-width:0.8;" x="303.3325" xlink:href="#m9019b64a39" y="318.04"/>
      </g>
     </g>
     <g id="text_5">
      <!-- 4 -->
      <defs>
       <path d="M 37.796875 64.3125 
L 12.890625 25.390625 
L 37.796875 25.390625 
z
M 35.203125 72.90625 
L 47.609375 72.90625 
L 47.609375 25.390625 
L 58.015625 25.390625 
L 58.015625 17.1875 
L 47.609375 17.1875 
L 47.609375 0 
L 37.796875 0 
L 37.796875 17.1875 
L 4.890625 17.1875 
L 4.890625 26.703125 
z
" id="DejaVuSans-52"/>
      </defs>
      <g transform="translate(300.15125 332.638438)scale(0.1 -0.1)">
       <use xlink:href="#DejaVuSans-52"/>
      </g>
     </g>
    </g>
    <g id="xtick_6">
     <g id="line2d_11">
      <path clip-path="url(#p5a5d954a08)" d="M 368.000625 318.04 
L 368.000625 26.88 
" style="fill:none;stroke:#8c8c8c;stroke-dasharray:1.11,0.48;stroke-dashoffset:0;stroke-width:0.3;"/>
     </g>
     <g id="line2d_12">
      <g>
       <use style="stroke:#000000;stroke-width:0.8;" x="368.000625" xlink:href="#m9019b64a39" y="318.04"/>
      </g>
     </g>
     <g id="text_6">
      <!-- 5 -->
      <defs>
       <path d="M 10.796875 72.90625 
L 49.515625 72.90625 
L 49.515625 64.59375 
L 19.828125 64.59375 
L 19.828125 46.734375 
Q 21.96875 47.46875 24.109375 47.828125 
Q 26.265625 48.1875 28.421875 48.1875 
Q 40.625 48.1875 47.75 41.5 
Q 54.890625 34.8125 54.890625 23.390625 
Q 54.890625 11.625 47.5625 5.09375 
Q 40.234375 -1.421875 26.90625 -1.421875 
Q 22.3125 -1.421875 17.546875 -0.640625 
Q 12.796875 0.140625 7.71875 1.703125 
L 7.71875 11.625 
Q 12.109375 9.234375 16.796875 8.0625 
Q 21.484375 6.890625 26.703125 6.890625 
Q 35.15625 6.890625 40.078125 11.328125 
Q 45.015625 15.765625 45.015625 23.390625 
Q 45.015625 31 40.078125 35.4375 
Q 35.15625 39.890625 26.703125 39.890625 
Q 22.75 39.890625 18.8125 39.015625 
Q 14.890625 38.140625 10.796875 36.28125 
z
" id="DejaVuSans-53"/>
      </defs>
      <g transform="translate(364.819375 332.638438)scale(0.1 -0.1)">
       <use xlink:href="#DejaVuSans-53"/>
      </g>
     </g>
    </g>
    <g id="xtick_7">
     <g id="line2d_13">
      <path clip-path="url(#p5a5d954a08)" d="M 432.66875 318.04 
L 432.66875 26.88 
" style="fill:none;stroke:#8c8c8c;stroke-dasharray:1.11,0.48;stroke-dashoffset:0;stroke-width:0.3;"/>
     </g>
     <g id="line2d_14">
      <g>
       <use style="stroke:#000000;stroke-width:0.8;" x="432.66875" xlink:href="#m9019b64a39" y="318.04"/>
      </g>
     </g>
     <g id="text_7">
      <!-- 6 -->
      <defs>
       <path d="M 33.015625 40.375 
Q 26.375 40.375 22.484375 35.828125 
Q 18.609375 31.296875 18.609375 23.390625 
Q 18.609375 15.53125 22.484375 10.953125 
Q 26.375 6.390625 33.015625 6.390625 
Q 39.65625 6.390625 43.53125 10.953125 
Q 47.40625 15.53125 47.40625 23.390625 
Q 47.40625 31.296875 43.53125 35.828125 
Q 39.65625 40.375 33.015625 40.375 
z
M 52.59375 71.296875 
L 52.59375 62.3125 
Q 48.875 64.0625 45.09375 64.984375 
Q 41.3125 65.921875 37.59375 65.921875 
Q 27.828125 65.921875 22.671875 59.328125 
Q 17.53125 52.734375 16.796875 39.40625 
Q 19.671875 43.65625 24.015625 45.921875 
Q 28.375 48.1875 33.59375 48.1875 
Q 44.578125 48.1875 50.953125 41.515625 
Q 57.328125 34.859375 57.328125 23.390625 
Q 57.328125 12.15625 50.6875 5.359375 
Q 44.046875 -1.421875 33.015625 -1.421875 
Q 20.359375 -1.421875 13.671875 8.265625 
Q 6.984375 17.96875 6.984375 36.375 
Q 6.984375 53.65625 15.1875 63.9375 
Q 23.390625 74.21875 37.203125 74.21875 
Q 40.921875 74.21875 44.703125 73.484375 
Q 48.484375 72.75 52.59375 71.296875 
z
" id="DejaVuSans-54"/>
      </defs>
      <g transform="translate(429.4875 332.638438)scale(0.1 -0.1)">
       <use xlink:href="#DejaVuSans-54"/>
      </g>
     </g>
    </g>
    <g id="xtick_8">
     <g id="line2d_15">
      <path clip-path="url(#p5a5d954a08)" d="M 497.336875 318.04 
L 497.336875 26.88 
" style="fill:none;stroke:#8c8c8c;stroke-dasharray:1.11,0.48;stroke-dashoffset:0;stroke-width:0.3;"/>
     </g>
     <g id="line2d_16">
      <g>
       <use style="stroke:#000000;stroke-width:0.8;" x="497.336875" xlink:href="#m9019b64a39" y="318.04"/>
      </g>
     </g>
     <g id="text_8">
      <!-- 7 -->
      <defs>
       <path d="M 8.203125 72.90625 
L 55.078125 72.90625 
L 55.078125 68.703125 
L 28.609375 0 
L 18.3125 0 
L 43.21875 64.59375 
L 8.203125 64.59375 
z
" id="DejaVuSans-55"/>
      </defs>
      <g transform="translate(494.155625 332.638438)scale(0.1 -0.1)">
       <use xlink:href="#DejaVuSans-55"/>
      </g>
     </g>
    </g>
    <g id="xtick_9">
     <g id="line2d_17">
      <path clip-path="url(#p5a5d954a08)" d="M 562.005 318.04 
L 562.005 26.88 
" style="fill:none;stroke:#8c8c8c;stroke-dasharray:1.11,0.48;stroke-dashoffset:0;stroke-width:0.3;"/>
     </g>
     <g id="line2d_18">
      <g>
       <use style="stroke:#000000;stroke-width:0.8;" x="562.005" xlink:href="#m9019b64a39" y="318.04"/>
      </g>
     </g>
     <g id="text_9">
      <!-- 8 -->
      <defs>
       <path d="M 31.78125 34.625 
Q 24.75 34.625 20.71875 30.859375 
Q 16.703125 27.09375 16.703125 20.515625 
Q 16.703125 13.921875 20.71875 10.15625 
Q 24.75 6.390625 31.78125 6.390625 
Q 38.8125 6.390625 42.859375 10.171875 
Q 46.921875 13.96875 46.921875 20.515625 
Q 46.921875 27.09375 42.890625 30.859375 
Q 38.875 34.625 31.78125 34.625 
z
M 21.921875 38.8125 
Q 15.578125 40.375 12.03125 44.71875 
Q 8.5 49.078125 8.5 55.328125 
Q 8.5 64.0625 14.71875 69.140625 
Q 20.953125 74.21875 31.78125 74.21875 
Q 42.671875 74.21875 48.875 69.140625 
Q 55.078125 64.0625 55.078125 55.328125 
Q 55.078125 49.078125 51.53125 44.71875 
Q 48 40.375 41.703125 38.8125 
Q 48.828125 37.15625 52.796875 32.3125 
Q 56.78125 27.484375 56.78125 20.515625 
Q 56.78125 9.90625 50.3125 4.234375 
Q 43.84375 -1.421875 31.78125 -1.421875 
Q 19.734375 -1.421875 13.25 4.234375 
Q 6.78125 9.90625 6.78125 20.515625 
Q 6.78125 27.484375 10.78125 32.3125 
Q 14.796875 37.15625 21.921875 38.8125 
z
M 18.3125 54.390625 
Q 18.3125 48.734375 21.84375 45.5625 
Q 25.390625 42.390625 31.78125 42.390625 
Q 38.140625 42.390625 41.71875 45.5625 
Q 45.3125 48.734375 45.3125 54.390625 
Q 45.3125 60.0625 41.71875 63.234375 
Q 38.140625 66.40625 31.78125 66.40625 
Q 25.390625 66.40625 21.84375 63.234375 
Q 18.3125 60.0625 18.3125 54.390625 
z
" id="DejaVuSans-56"/>
      </defs>
      <g transform="translate(558.82375 332.638438)scale(0.1 -0.1)">
       <use xlink:href="#DejaVuSans-56"/>
      </g>
     </g>
    </g>
    <g id="text_10">
     <!-- number of instances, 10^n -->
     <defs>
      <path d="M 54.890625 33.015625 
L 54.890625 0 
L 45.90625 0 
L 45.90625 32.71875 
Q 45.90625 40.484375 42.875 44.328125 
Q 39.84375 48.1875 33.796875 48.1875 
Q 26.515625 48.1875 22.3125 43.546875 
Q 18.109375 38.921875 18.109375 30.90625 
L 18.109375 0 
L 9.078125 0 
L 9.078125 54.6875 
L 18.109375 54.6875 
L 18.109375 46.1875 
Q 21.34375 51.125 25.703125 53.5625 
Q 30.078125 56 35.796875 56 
Q 45.21875 56 50.046875 50.171875 
Q 54.890625 44.34375 54.890625 33.015625 
z
" id="DejaVuSans-110"/>
      <path d="M 8.5 21.578125 
L 8.5 54.6875 
L 17.484375 54.6875 
L 17.484375 21.921875 
Q 17.484375 14.15625 20.5 10.265625 
Q 23.53125 6.390625 29.59375 6.390625 
Q 36.859375 6.390625 41.078125 11.03125 
Q 45.3125 15.671875 45.3125 23.6875 
L 45.3125 54.6875 
L 54.296875 54.6875 
L 54.296875 0 
L 45.3125 0 
L 45.3125 8.40625 
Q 42.046875 3.421875 37.71875 1 
Q 33.40625 -1.421875 27.6875 -1.421875 
Q 18.265625 -1.421875 13.375 4.4375 
Q 8.5 10.296875 8.5 21.578125 
z
M 31.109375 56 
z
" id="DejaVuSans-117"/>
      <path d="M 52 44.1875 
Q 55.375 50.25 60.0625 53.125 
Q 64.75 56 71.09375 56 
Q 79.640625 56 84.28125 50.015625 
Q 88.921875 44.046875 88.921875 33.015625 
L 88.921875 0 
L 79.890625 0 
L 79.890625 32.71875 
Q 79.890625 40.578125 77.09375 44.375 
Q 74.3125 48.1875 68.609375 48.1875 
Q 61.625 48.1875 57.5625 43.546875 
Q 53.515625 38.921875 53.515625 30.90625 
L 53.515625 0 
L 44.484375 0 
L 44.484375 32.71875 
Q 44.484375 40.625 41.703125 44.40625 
Q 38.921875 48.1875 33.109375 48.1875 
Q 26.21875 48.1875 22.15625 43.53125 
Q 18.109375 38.875 18.109375 30.90625 
L 18.109375 0 
L 9.078125 0 
L 9.078125 54.6875 
L 18.109375 54.6875 
L 18.109375 46.1875 
Q 21.1875 51.21875 25.484375 53.609375 
Q 29.78125 56 35.6875 56 
Q 41.65625 56 45.828125 52.96875 
Q 50 49.953125 52 44.1875 
z
" id="DejaVuSans-109"/>
      <path d="M 48.6875 27.296875 
Q 48.6875 37.203125 44.609375 42.84375 
Q 40.53125 48.484375 33.40625 48.484375 
Q 26.265625 48.484375 22.1875 42.84375 
Q 18.109375 37.203125 18.109375 27.296875 
Q 18.109375 17.390625 22.1875 11.75 
Q 26.265625 6.109375 33.40625 6.109375 
Q 40.53125 6.109375 44.609375 11.75 
Q 48.6875 17.390625 48.6875 27.296875 
z
M 18.109375 46.390625 
Q 20.953125 51.265625 25.265625 53.625 
Q 29.59375 56 35.59375 56 
Q 45.5625 56 51.78125 48.09375 
Q 58.015625 40.1875 58.015625 27.296875 
Q 58.015625 14.40625 51.78125 6.484375 
Q 45.5625 -1.421875 35.59375 -1.421875 
Q 29.59375 -1.421875 25.265625 0.953125 
Q 20.953125 3.328125 18.109375 8.203125 
L 18.109375 0 
L 9.078125 0 
L 9.078125 75.984375 
L 18.109375 75.984375 
z
" id="DejaVuSans-98"/>
      <path d="M 56.203125 29.59375 
L 56.203125 25.203125 
L 14.890625 25.203125 
Q 15.484375 15.921875 20.484375 11.0625 
Q 25.484375 6.203125 34.421875 6.203125 
Q 39.59375 6.203125 44.453125 7.46875 
Q 49.3125 8.734375 54.109375 11.28125 
L 54.109375 2.78125 
Q 49.265625 0.734375 44.1875 -0.34375 
Q 39.109375 -1.421875 33.890625 -1.421875 
Q 20.796875 -1.421875 13.15625 6.1875 
Q 5.515625 13.8125 5.515625 26.8125 
Q 5.515625 40.234375 12.765625 48.109375 
Q 20.015625 56 32.328125 56 
Q 43.359375 56 49.78125 48.890625 
Q 56.203125 41.796875 56.203125 29.59375 
z
M 47.21875 32.234375 
Q 47.125 39.59375 43.09375 43.984375 
Q 39.0625 48.390625 32.421875 48.390625 
Q 24.90625 48.390625 20.390625 44.140625 
Q 15.875 39.890625 15.1875 32.171875 
z
" id="DejaVuSans-101"/>
      <path d="M 41.109375 46.296875 
Q 39.59375 47.171875 37.8125 47.578125 
Q 36.03125 48 33.890625 48 
Q 26.265625 48 22.1875 43.046875 
Q 18.109375 38.09375 18.109375 28.8125 
L 18.109375 0 
L 9.078125 0 
L 9.078125 54.6875 
L 18.109375 54.6875 
L 18.109375 46.1875 
Q 20.953125 51.171875 25.484375 53.578125 
Q 30.03125 56 36.53125 56 
Q 37.453125 56 38.578125 55.875 
Q 39.703125 55.765625 41.0625 55.515625 
z
" id="DejaVuSans-114"/>
      <path id="DejaVuSans-32"/>
      <path d="M 30.609375 48.390625 
Q 23.390625 48.390625 19.1875 42.75 
Q 14.984375 37.109375 14.984375 27.296875 
Q 14.984375 17.484375 19.15625 11.84375 
Q 23.34375 6.203125 30.609375 6.203125 
Q 37.796875 6.203125 41.984375 11.859375 
Q 46.1875 17.53125 46.1875 27.296875 
Q 46.1875 37.015625 41.984375 42.703125 
Q 37.796875 48.390625 30.609375 48.390625 
z
M 30.609375 56 
Q 42.328125 56 49.015625 48.375 
Q 55.71875 40.765625 55.71875 27.296875 
Q 55.71875 13.875 49.015625 6.21875 
Q 42.328125 -1.421875 30.609375 -1.421875 
Q 18.84375 -1.421875 12.171875 6.21875 
Q 5.515625 13.875 5.515625 27.296875 
Q 5.515625 40.765625 12.171875 48.375 
Q 18.84375 56 30.609375 56 
z
" id="DejaVuSans-111"/>
      <path d="M 37.109375 75.984375 
L 37.109375 68.5 
L 28.515625 68.5 
Q 23.6875 68.5 21.796875 66.546875 
Q 19.921875 64.59375 19.921875 59.515625 
L 19.921875 54.6875 
L 34.71875 54.6875 
L 34.71875 47.703125 
L 19.921875 47.703125 
L 19.921875 0 
L 10.890625 0 
L 10.890625 47.703125 
L 2.296875 47.703125 
L 2.296875 54.6875 
L 10.890625 54.6875 
L 10.890625 58.5 
Q 10.890625 67.625 15.140625 71.796875 
Q 19.390625 75.984375 28.609375 75.984375 
z
" id="DejaVuSans-102"/>
      <path d="M 9.421875 54.6875 
L 18.40625 54.6875 
L 18.40625 0 
L 9.421875 0 
z
M 9.421875 75.984375 
L 18.40625 75.984375 
L 18.40625 64.59375 
L 9.421875 64.59375 
z
" id="DejaVuSans-105"/>
      <path d="M 44.28125 53.078125 
L 44.28125 44.578125 
Q 40.484375 46.53125 36.375 47.5 
Q 32.28125 48.484375 27.875 48.484375 
Q 21.1875 48.484375 17.84375 46.4375 
Q 14.5 44.390625 14.5 40.28125 
Q 14.5 37.15625 16.890625 35.375 
Q 19.28125 33.59375 26.515625 31.984375 
L 29.59375 31.296875 
Q 39.15625 29.25 43.1875 25.515625 
Q 47.21875 21.78125 47.21875 15.09375 
Q 47.21875 7.46875 41.1875 3.015625 
Q 35.15625 -1.421875 24.609375 -1.421875 
Q 20.21875 -1.421875 15.453125 -0.5625 
Q 10.6875 0.296875 5.421875 2 
L 5.421875 11.28125 
Q 10.40625 8.6875 15.234375 7.390625 
Q 20.0625 6.109375 24.8125 6.109375 
Q 31.15625 6.109375 34.5625 8.28125 
Q 37.984375 10.453125 37.984375 14.40625 
Q 37.984375 18.0625 35.515625 20.015625 
Q 33.0625 21.96875 24.703125 23.78125 
L 21.578125 24.515625 
Q 13.234375 26.265625 9.515625 29.90625 
Q 5.8125 33.546875 5.8125 39.890625 
Q 5.8125 47.609375 11.28125 51.796875 
Q 16.75 56 26.8125 56 
Q 31.78125 56 36.171875 55.265625 
Q 40.578125 54.546875 44.28125 53.078125 
z
" id="DejaVuSans-115"/>
      <path d="M 18.3125 70.21875 
L 18.3125 54.6875 
L 36.8125 54.6875 
L 36.8125 47.703125 
L 18.3125 47.703125 
L 18.3125 18.015625 
Q 18.3125 11.328125 20.140625 9.421875 
Q 21.96875 7.515625 27.59375 7.515625 
L 36.8125 7.515625 
L 36.8125 0 
L 27.59375 0 
Q 17.1875 0 13.234375 3.875 
Q 9.28125 7.765625 9.28125 18.015625 
L 9.28125 47.703125 
L 2.6875 47.703125 
L 2.6875 54.6875 
L 9.28125 54.6875 
L 9.28125 70.21875 
z
" id="DejaVuSans-116"/>
      <path d="M 34.28125 27.484375 
Q 23.390625 27.484375 19.1875 25 
Q 14.984375 22.515625 14.984375 16.5 
Q 14.984375 11.71875 18.140625 8.90625 
Q 21.296875 6.109375 26.703125 6.109375 
Q 34.1875 6.109375 38.703125 11.40625 
Q 43.21875 16.703125 43.21875 25.484375 
L 43.21875 27.484375 
z
M 52.203125 31.203125 
L 52.203125 0 
L 43.21875 0 
L 43.21875 8.296875 
Q 40.140625 3.328125 35.546875 0.953125 
Q 30.953125 -1.421875 24.3125 -1.421875 
Q 15.921875 -1.421875 10.953125 3.296875 
Q 6 8.015625 6 15.921875 
Q 6 25.140625 12.171875 29.828125 
Q 18.359375 34.515625 30.609375 34.515625 
L 43.21875 34.515625 
L 43.21875 35.40625 
Q 43.21875 41.609375 39.140625 45 
Q 35.0625 48.390625 27.6875 48.390625 
Q 23 48.390625 18.546875 47.265625 
Q 14.109375 46.140625 10.015625 43.890625 
L 10.015625 52.203125 
Q 14.9375 54.109375 19.578125 55.046875 
Q 24.21875 56 28.609375 56 
Q 40.484375 56 46.34375 49.84375 
Q 52.203125 43.703125 52.203125 31.203125 
z
" id="DejaVuSans-97"/>
      <path d="M 48.78125 52.59375 
L 48.78125 44.1875 
Q 44.96875 46.296875 41.140625 47.34375 
Q 37.3125 48.390625 33.40625 48.390625 
Q 24.65625 48.390625 19.8125 42.84375 
Q 14.984375 37.3125 14.984375 27.296875 
Q 14.984375 17.28125 19.8125 11.734375 
Q 24.65625 6.203125 33.40625 6.203125 
Q 37.3125 6.203125 41.140625 7.25 
Q 44.96875 8.296875 48.78125 10.40625 
L 48.78125 2.09375 
Q 45.015625 0.34375 40.984375 -0.53125 
Q 36.96875 -1.421875 32.421875 -1.421875 
Q 20.0625 -1.421875 12.78125 6.34375 
Q 5.515625 14.109375 5.515625 27.296875 
Q 5.515625 40.671875 12.859375 48.328125 
Q 20.21875 56 33.015625 56 
Q 37.15625 56 41.109375 55.140625 
Q 45.0625 54.296875 48.78125 52.59375 
z
" id="DejaVuSans-99"/>
      <path d="M 11.71875 12.40625 
L 22.015625 12.40625 
L 22.015625 4 
L 14.015625 -11.625 
L 7.71875 -11.625 
L 11.71875 4 
z
" id="DejaVuSans-44"/>
      <path d="M 46.6875 72.90625 
L 73.1875 45.703125 
L 63.375 45.703125 
L 41.890625 64.984375 
L 20.40625 45.703125 
L 10.59375 45.703125 
L 37.109375 72.90625 
z
" id="DejaVuSans-94"/>
     </defs>
     <g transform="translate(235.135625 346.316563)scale(0.1 -0.1)">
      <use xlink:href="#DejaVuSans-110"/>
      <use x="63.378906" xlink:href="#DejaVuSans-117"/>
      <use x="126.757812" xlink:href="#DejaVuSans-109"/>
      <use x="224.169922" xlink:href="#DejaVuSans-98"/>
      <use x="287.646484" xlink:href="#DejaVuSans-101"/>
      <use x="349.169922" xlink:href="#DejaVuSans-114"/>
      <use x="390.283203" xlink:href="#DejaVuSans-32"/>
      <use x="422.070312" xlink:href="#DejaVuSans-111"/>
      <use x="483.251953" xlink:href="#DejaVuSans-102"/>
      <use x="518.457031" xlink:href="#DejaVuSans-32"/>
      <use x="550.244141" xlink:href="#DejaVuSans-105"/>
      <use x="578.027344" xlink:href="#DejaVuSans-110"/>
      <use x="641.40625" xlink:href="#DejaVuSans-115"/>
      <use x="693.505859" xlink:href="#DejaVuSans-116"/>
      <use x="732.714844" xlink:href="#DejaVuSans-97"/>
      <use x="793.994141" xlink:href="#DejaVuSans-110"/>
      <use x="857.373047" xlink:href="#DejaVuSans-99"/>
      <use x="912.353516" xlink:href="#DejaVuSans-101"/>
      <use x="973.876953" xlink:href="#DejaVuSans-115"/>
      <use x="1025.976562" xlink:href="#DejaVuSans-44"/>
      <use x="1057.763672" xlink:href="#DejaVuSans-32"/>
      <use x="1089.550781" xlink:href="#DejaVuSans-49"/>
      <use x="1153.173828" xlink:href="#DejaVuSans-48"/>
      <use x="1216.796875" xlink:href="#DejaVuSans-94"/>
      <use x="1300.585938" xlink:href="#DejaVuSans-110"/>
     </g>
    </g>
   </g>
   <g id="matplotlib.axis_2">
    <g id="ytick_1">
     <g id="line2d_19">
      <path clip-path="url(#p5a5d954a08)" d="M 44.66 318.04 
L 562.005 318.04 
" style="fill:none;stroke:#8c8c8c;stroke-dasharray:1.11,0.48;stroke-dashoffset:0;stroke-width:0.3;"/>
     </g>
     <g id="line2d_20">
      <defs>
       <path d="M 0 0 
L -3.5 0 
" id="m9453aa3e80" style="stroke:#000000;stroke-width:0.8;"/>
      </defs>
      <g>
       <use style="stroke:#000000;stroke-width:0.8;" x="44.66" xlink:href="#m9453aa3e80" y="318.04"/>
      </g>
     </g>
     <g id="text_11">
      <!-- 0 -->
      <g transform="translate(31.2975 321.839219)scale(0.1 -0.1)">
       <use xlink:href="#DejaVuSans-48"/>
      </g>
     </g>
    </g>
    <g id="ytick_2">
     <g id="line2d_21">
      <path clip-path="url(#p5a5d954a08)" d="M 44.66 293.776667 
L 562.005 293.776667 
" style="fill:none;stroke:#8c8c8c;stroke-dasharray:1.11,0.48;stroke-dashoffset:0;stroke-width:0.3;"/>
     </g>
     <g id="line2d_22">
      <g>
       <use style="stroke:#000000;stroke-width:0.8;" x="44.66" xlink:href="#m9453aa3e80" y="293.776667"/>
      </g>
     </g>
     <g id="text_12">
      <!-- 1 -->
      <g transform="translate(31.2975 297.575885)scale(0.1 -0.1)">
       <use xlink:href="#DejaVuSans-49"/>
      </g>
     </g>
    </g>
    <g id="ytick_3">
     <g id="line2d_23">
      <path clip-path="url(#p5a5d954a08)" d="M 44.66 269.513333 
L 562.005 269.513333 
" style="fill:none;stroke:#8c8c8c;stroke-dasharray:1.11,0.48;stroke-dashoffset:0;stroke-width:0.3;"/>
     </g>
     <g id="line2d_24">
      <g>
       <use style="stroke:#000000;stroke-width:0.8;" x="44.66" xlink:href="#m9453aa3e80" y="269.513333"/>
      </g>
     </g>
     <g id="text_13">
      <!-- 2 -->
      <g transform="translate(31.2975 273.312552)scale(0.1 -0.1)">
       <use xlink:href="#DejaVuSans-50"/>
      </g>
     </g>
    </g>
    <g id="ytick_4">
     <g id="line2d_25">
      <path clip-path="url(#p5a5d954a08)" d="M 44.66 245.25 
L 562.005 245.25 
" style="fill:none;stroke:#8c8c8c;stroke-dasharray:1.11,0.48;stroke-dashoffset:0;stroke-width:0.3;"/>
     </g>
     <g id="line2d_26">
      <g>
       <use style="stroke:#000000;stroke-width:0.8;" x="44.66" xlink:href="#m9453aa3e80" y="245.25"/>
      </g>
     </g>
     <g id="text_14">
      <!-- 3 -->
      <g transform="translate(31.2975 249.049219)scale(0.1 -0.1)">
       <use xlink:href="#DejaVuSans-51"/>
      </g>
     </g>
    </g>
    <g id="ytick_5">
     <g id="line2d_27">
      <path clip-path="url(#p5a5d954a08)" d="M 44.66 220.986667 
L 562.005 220.986667 
" style="fill:none;stroke:#8c8c8c;stroke-dasharray:1.11,0.48;stroke-dashoffset:0;stroke-width:0.3;"/>
     </g>
     <g id="line2d_28">
      <g>
       <use style="stroke:#000000;stroke-width:0.8;" x="44.66" xlink:href="#m9453aa3e80" y="220.986667"/>
      </g>
     </g>
     <g id="text_15">
      <!-- 4 -->
      <g transform="translate(31.2975 224.785885)scale(0.1 -0.1)">
       <use xlink:href="#DejaVuSans-52"/>
      </g>
     </g>
    </g>
    <g id="ytick_6">
     <g id="line2d_29">
      <path clip-path="url(#p5a5d954a08)" d="M 44.66 196.723333 
L 562.005 196.723333 
" style="fill:none;stroke:#8c8c8c;stroke-dasharray:1.11,0.48;stroke-dashoffset:0;stroke-width:0.3;"/>
     </g>
     <g id="line2d_30">
      <g>
       <use style="stroke:#000000;stroke-width:0.8;" x="44.66" xlink:href="#m9453aa3e80" y="196.723333"/>
      </g>
     </g>
     <g id="text_16">
      <!-- 5 -->
      <g transform="translate(31.2975 200.522552)scale(0.1 -0.1)">
       <use xlink:href="#DejaVuSans-53"/>
      </g>
     </g>
    </g>
    <g id="ytick_7">
     <g id="line2d_31">
      <path clip-path="url(#p5a5d954a08)" d="M 44.66 172.46 
L 562.005 172.46 
" style="fill:none;stroke:#8c8c8c;stroke-dasharray:1.11,0.48;stroke-dashoffset:0;stroke-width:0.3;"/>
     </g>
     <g id="line2d_32">
      <g>
       <use style="stroke:#000000;stroke-width:0.8;" x="44.66" xlink:href="#m9453aa3e80" y="172.46"/>
      </g>
     </g>
     <g id="text_17">
      <!-- 6 -->
      <g transform="translate(31.2975 176.259219)scale(0.1 -0.1)">
       <use xlink:href="#DejaVuSans-54"/>
      </g>
     </g>
    </g>
    <g id="ytick_8">
     <g id="line2d_33">
      <path clip-path="url(#p5a5d954a08)" d="M 44.66 148.196667 
L 562.005 148.196667 
" style="fill:none;stroke:#8c8c8c;stroke-dasharray:1.11,0.48;stroke-dashoffset:0;stroke-width:0.3;"/>
     </g>
     <g id="line2d_34">
      <g>
       <use style="stroke:#000000;stroke-width:0.8;" x="44.66" xlink:href="#m9453aa3e80" y="148.196667"/>
      </g>
     </g>
     <g id="text_18">
      <!-- 7 -->
      <g transform="translate(31.2975 151.995885)scale(0.1 -0.1)">
       <use xlink:href="#DejaVuSans-55"/>
      </g>
     </g>
    </g>
    <g id="ytick_9">
     <g id="line2d_35">
      <path clip-path="url(#p5a5d954a08)" d="M 44.66 123.933333 
L 562.005 123.933333 
" style="fill:none;stroke:#8c8c8c;stroke-dasharray:1.11,0.48;stroke-dashoffset:0;stroke-width:0.3;"/>
     </g>
     <g id="line2d_36">
      <g>
       <use style="stroke:#000000;stroke-width:0.8;" x="44.66" xlink:href="#m9453aa3e80" y="123.933333"/>
      </g>
     </g>
     <g id="text_19">
      <!-- 8 -->
      <g transform="translate(31.2975 127.732552)scale(0.1 -0.1)">
       <use xlink:href="#DejaVuSans-56"/>
      </g>
     </g>
    </g>
    <g id="ytick_10">
     <g id="line2d_37">
      <path clip-path="url(#p5a5d954a08)" d="M 44.66 99.67 
L 562.005 99.67 
" style="fill:none;stroke:#8c8c8c;stroke-dasharray:1.11,0.48;stroke-dashoffset:0;stroke-width:0.3;"/>
     </g>
     <g id="line2d_38">
      <g>
       <use style="stroke:#000000;stroke-width:0.8;" x="44.66" xlink:href="#m9453aa3e80" y="99.67"/>
      </g>
     </g>
     <g id="text_20">
      <!-- 9 -->
      <defs>
       <path d="M 10.984375 1.515625 
L 10.984375 10.5 
Q 14.703125 8.734375 18.5 7.8125 
Q 22.3125 6.890625 25.984375 6.890625 
Q 35.75 6.890625 40.890625 13.453125 
Q 46.046875 20.015625 46.78125 33.40625 
Q 43.953125 29.203125 39.59375 26.953125 
Q 35.25 24.703125 29.984375 24.703125 
Q 19.046875 24.703125 12.671875 31.3125 
Q 6.296875 37.9375 6.296875 49.421875 
Q 6.296875 60.640625 12.9375 67.421875 
Q 19.578125 74.21875 30.609375 74.21875 
Q 43.265625 74.21875 49.921875 64.515625 
Q 56.59375 54.828125 56.59375 36.375 
Q 56.59375 19.140625 48.40625 8.859375 
Q 40.234375 -1.421875 26.421875 -1.421875 
Q 22.703125 -1.421875 18.890625 -0.6875 
Q 15.09375 0.046875 10.984375 1.515625 
z
M 30.609375 32.421875 
Q 37.25 32.421875 41.125 36.953125 
Q 45.015625 41.5 45.015625 49.421875 
Q 45.015625 57.28125 41.125 61.84375 
Q 37.25 66.40625 30.609375 66.40625 
Q 23.96875 66.40625 20.09375 61.84375 
Q 16.21875 57.28125 16.21875 49.421875 
Q 16.21875 41.5 20.09375 36.953125 
Q 23.96875 32.421875 30.609375 32.421875 
z
" id="DejaVuSans-57"/>
      </defs>
      <g transform="translate(31.2975 103.469219)scale(0.1 -0.1)">
       <use xlink:href="#DejaVuSans-57"/>
      </g>
     </g>
    </g>
    <g id="ytick_11">
     <g id="line2d_39">
      <path clip-path="url(#p5a5d954a08)" d="M 44.66 75.406667 
L 562.005 75.406667 
" style="fill:none;stroke:#8c8c8c;stroke-dasharray:1.11,0.48;stroke-dashoffset:0;stroke-width:0.3;"/>
     </g>
     <g id="line2d_40">
      <g>
       <use style="stroke:#000000;stroke-width:0.8;" x="44.66" xlink:href="#m9453aa3e80" y="75.406667"/>
      </g>
     </g>
     <g id="text_21">
      <!-- 10 -->
      <g transform="translate(24.935 79.205885)scale(0.1 -0.1)">
       <use xlink:href="#DejaVuSans-49"/>
       <use x="63.623047" xlink:href="#DejaVuSans-48"/>
      </g>
     </g>
    </g>
    <g id="ytick_12">
     <g id="line2d_41">
      <path clip-path="url(#p5a5d954a08)" d="M 44.66 51.143333 
L 562.005 51.143333 
" style="fill:none;stroke:#8c8c8c;stroke-dasharray:1.11,0.48;stroke-dashoffset:0;stroke-width:0.3;"/>
     </g>
     <g id="line2d_42">
      <g>
       <use style="stroke:#000000;stroke-width:0.8;" x="44.66" xlink:href="#m9453aa3e80" y="51.143333"/>
      </g>
     </g>
     <g id="text_22">
      <!-- 11 -->
      <g transform="translate(24.935 54.942552)scale(0.1 -0.1)">
       <use xlink:href="#DejaVuSans-49"/>
       <use x="63.623047" xlink:href="#DejaVuSans-49"/>
      </g>
     </g>
    </g>
    <g id="text_23">
     <!-- spread -->
     <defs>
      <path d="M 18.109375 8.203125 
L 18.109375 -20.796875 
L 9.078125 -20.796875 
L 9.078125 54.6875 
L 18.109375 54.6875 
L 18.109375 46.390625 
Q 20.953125 51.265625 25.265625 53.625 
Q 29.59375 56 35.59375 56 
Q 45.5625 56 51.78125 48.09375 
Q 58.015625 40.1875 58.015625 27.296875 
Q 58.015625 14.40625 51.78125 6.484375 
Q 45.5625 -1.421875 35.59375 -1.421875 
Q 29.59375 -1.421875 25.265625 0.953125 
Q 20.953125 3.328125 18.109375 8.203125 
z
M 48.6875 27.296875 
Q 48.6875 37.203125 44.609375 42.84375 
Q 40.53125 48.484375 33.40625 48.484375 
Q 26.265625 48.484375 22.1875 42.84375 
Q 18.109375 37.203125 18.109375 27.296875 
Q 18.109375 17.390625 22.1875 11.75 
Q 26.265625 6.109375 33.40625 6.109375 
Q 40.53125 6.109375 44.609375 11.75 
Q 48.6875 17.390625 48.6875 27.296875 
z
" id="DejaVuSans-112"/>
      <path d="M 45.40625 46.390625 
L 45.40625 75.984375 
L 54.390625 75.984375 
L 54.390625 0 
L 45.40625 0 
L 45.40625 8.203125 
Q 42.578125 3.328125 38.25 0.953125 
Q 33.9375 -1.421875 27.875 -1.421875 
Q 17.96875 -1.421875 11.734375 6.484375 
Q 5.515625 14.40625 5.515625 27.296875 
Q 5.515625 40.1875 11.734375 48.09375 
Q 17.96875 56 27.875 56 
Q 33.9375 56 38.25 53.625 
Q 42.578125 51.265625 45.40625 46.390625 
z
M 14.796875 27.296875 
Q 14.796875 17.390625 18.875 11.75 
Q 22.953125 6.109375 30.078125 6.109375 
Q 37.203125 6.109375 41.296875 11.75 
Q 45.40625 17.390625 45.40625 27.296875 
Q 45.40625 37.203125 41.296875 42.84375 
Q 37.203125 48.484375 30.078125 48.484375 
Q 22.953125 48.484375 18.875 42.84375 
Q 14.796875 37.203125 14.796875 27.296875 
z
" id="DejaVuSans-100"/>
     </defs>
     <g transform="translate(18.855313 189.607656)rotate(-90)scale(0.1 -0.1)">
      <use xlink:href="#DejaVuSans-115"/>
      <use x="52.099609" xlink:href="#DejaVuSans-112"/>
      <use x="115.576172" xlink:href="#DejaVuSans-114"/>
      <use x="156.658203" xlink:href="#DejaVuSans-101"/>
      <use x="218.181641" xlink:href="#DejaVuSans-97"/>
      <use x="279.460938" xlink:href="#DejaVuSans-100"/>
     </g>
    </g>
   </g>
   <g id="line2d_43">
    <path clip-path="url(#p5a5d954a08)" d="M 44.66 270.395766 
L 109.328125 270.072505 
L 173.99625 270.849669 
L 238.664375 265.131028 
L 303.3325 53.471826 
L 368.000625 197.083525 
L 432.66875 252.355784 
L 497.336875 266.98623 
L 562.005 274.85751 
" style="fill:none;stroke:#00ffff;stroke-linecap:square;stroke-width:1.5;"/>
    <defs>
     <path d="M 0 1.5 
C 0.397805 1.5 0.77937 1.341951 1.06066 1.06066 
C 1.341951 0.77937 1.5 0.397805 1.5 0 
C 1.5 -0.397805 1.341951 -0.77937 1.06066 -1.06066 
C 0.77937 -1.341951 0.397805 -1.5 0 -1.5 
C -0.397805 -1.5 -0.77937 -1.341951 -1.06066 -1.06066 
C -1.341951 -0.77937 -1.5 -0.397805 -1.5 0 
C -1.5 0.397805 -1.341951 0.77937 -1.06066 1.06066 
C -0.77937 1.341951 -0.397805 1.5 0 1.5 
z
" id="m151769ce6c" style="stroke:#00ffff;"/>
    </defs>
    <g clip-path="url(#p5a5d954a08)">
     <use style="fill-opacity:0;stroke:#00ffff;" x="44.66" xlink:href="#m151769ce6c" y="270.395766"/>
     <use style="fill-opacity:0;stroke:#00ffff;" x="109.328125" xlink:href="#m151769ce6c" y="270.072505"/>
     <use style="fill-opacity:0;stroke:#00ffff;" x="173.99625" xlink:href="#m151769ce6c" y="270.849669"/>
     <use style="fill-opacity:0;stroke:#00ffff;" x="238.664375" xlink:href="#m151769ce6c" y="265.131028"/>
     <use style="fill-opacity:0;stroke:#00ffff;" x="303.3325" xlink:href="#m151769ce6c" y="53.471826"/>
     <use style="fill-opacity:0;stroke:#00ffff;" x="368.000625" xlink:href="#m151769ce6c" y="197.083525"/>
     <use style="fill-opacity:0;stroke:#00ffff;" x="432.66875" xlink:href="#m151769ce6c" y="252.355784"/>
     <use style="fill-opacity:0;stroke:#00ffff;" x="497.336875" xlink:href="#m151769ce6c" y="266.98623"/>
     <use style="fill-opacity:0;stroke:#00ffff;" x="562.005" xlink:href="#m151769ce6c" y="274.85751"/>
    </g>
   </g>
   <g id="line2d_44">
    <path clip-path="url(#p5a5d954a08)" d="M 44.66 289.740468 
L 109.328125 291.436827 
L 173.99625 287.267386 
L 238.664375 290.800132 
L 303.3325 271.00634 
L 368.000625 256.362589 
L 432.66875 289.17501 
L 497.336875 289.811333 
L 562.005 291.462163 
" style="fill:none;stroke:#ff0000;stroke-linecap:square;"/>
   </g>
   <g id="line2d_45">
    <path clip-path="url(#p5a5d954a08)" d="M 44.66 251.214792 
L 109.328125 252.742707 
L 173.99625 201.1871 
L 238.664375 265.453442 
L 303.3325 221.91947 
L 368.000625 150.491761 
L 432.66875 257.552872 
L 497.336875 270.025834 
L 562.005 281.04556 
" style="fill:none;stroke:#55aaff;stroke-dasharray:5.55,2.4;stroke-dashoffset:0;stroke-width:1.5;"/>
    <defs>
     <path d="M 0 1.5 
C 0.397805 1.5 0.77937 1.341951 1.06066 1.06066 
C 1.341951 0.77937 1.5 0.397805 1.5 0 
C 1.5 -0.397805 1.341951 -0.77937 1.06066 -1.06066 
C 0.77937 -1.341951 0.397805 -1.5 0 -1.5 
C -0.397805 -1.5 -0.77937 -1.341951 -1.06066 -1.06066 
C -1.341951 -0.77937 -1.5 -0.397805 -1.5 0 
C -1.5 0.397805 -1.341951 0.77937 -1.06066 1.06066 
C -0.77937 1.341951 -0.397805 1.5 0 1.5 
z
" id="mdb9aff46bc" style="stroke:#55aaff;"/>
    </defs>
    <g clip-path="url(#p5a5d954a08)">
     <use style="fill-opacity:0;stroke:#55aaff;" x="44.66" xlink:href="#mdb9aff46bc" y="251.214792"/>
     <use style="fill-opacity:0;stroke:#55aaff;" x="109.328125" xlink:href="#mdb9aff46bc" y="252.742707"/>
     <use style="fill-opacity:0;stroke:#55aaff;" x="173.99625" xlink:href="#mdb9aff46bc" y="201.1871"/>
     <use style="fill-opacity:0;stroke:#55aaff;" x="238.664375" xlink:href="#mdb9aff46bc" y="265.453442"/>
     <use style="fill-opacity:0;stroke:#55aaff;" x="303.3325" xlink:href="#mdb9aff46bc" y="221.91947"/>
     <use style="fill-opacity:0;stroke:#55aaff;" x="368.000625" xlink:href="#mdb9aff46bc" y="150.491761"/>
     <use style="fill-opacity:0;stroke:#55aaff;" x="432.66875" xlink:href="#mdb9aff46bc" y="257.552872"/>
     <use style="fill-opacity:0;stroke:#55aaff;" x="497.336875" xlink:href="#mdb9aff46bc" y="270.025834"/>
     <use style="fill-opacity:0;stroke:#55aaff;" x="562.005" xlink:href="#mdb9aff46bc" y="281.04556"/>
    </g>
   </g>
   <g id="line2d_46">
    <path clip-path="url(#p5a5d954a08)" d="M 44.66 287.891482 
L 109.328125 287.574505 
L 173.99625 237.591727 
L 238.664375 285.720496 
L 303.3325 291.48264 
L 368.000625 239.797942 
L 432.66875 283.614908 
L 497.336875 281.617723 
L 562.005 292.74141 
" style="fill:none;stroke:#ff5500;stroke-dasharray:3.7,1.6;stroke-dashoffset:0;"/>
   </g>
   <g id="line2d_47">
    <path clip-path="url(#p5a5d954a08)" d="M 44.66 259.685648 
L 109.328125 180.019643 
L 173.99625 263.2795 
L 238.664375 263.30621 
L 303.3325 267.477216 
L 368.000625 264.86478 
L 432.66875 264.818689 
L 497.336875 265.940472 
L 562.005 266.626869 
" style="fill:none;stroke:#aa55ff;stroke-dasharray:9.6,2.4,1.5,2.4;stroke-dashoffset:0;stroke-width:1.5;"/>
    <defs>
     <path d="M 0 1.5 
C 0.397805 1.5 0.77937 1.341951 1.06066 1.06066 
C 1.341951 0.77937 1.5 0.397805 1.5 0 
C 1.5 -0.397805 1.341951 -0.77937 1.06066 -1.06066 
C 0.77937 -1.341951 0.397805 -1.5 0 -1.5 
C -0.397805 -1.5 -0.77937 -1.341951 -1.06066 -1.06066 
C -1.341951 -0.77937 -1.5 -0.397805 -1.5 0 
C -1.5 0.397805 -1.341951 0.77937 -1.06066 1.06066 
C -0.77937 1.341951 -0.397805 1.5 0 1.5 
z
" id="m57b23bd4c7" style="stroke:#aa55ff;"/>
    </defs>
    <g clip-path="url(#p5a5d954a08)">
     <use style="fill-opacity:0;stroke:#aa55ff;" x="44.66" xlink:href="#m57b23bd4c7" y="259.685648"/>
     <use style="fill-opacity:0;stroke:#aa55ff;" x="109.328125" xlink:href="#m57b23bd4c7" y="180.019643"/>
     <use style="fill-opacity:0;stroke:#aa55ff;" x="173.99625" xlink:href="#m57b23bd4c7" y="263.2795"/>
     <use style="fill-opacity:0;stroke:#aa55ff;" x="238.664375" xlink:href="#m57b23bd4c7" y="263.30621"/>
     <use style="fill-opacity:0;stroke:#aa55ff;" x="303.3325" xlink:href="#m57b23bd4c7" y="267.477216"/>
     <use style="fill-opacity:0;stroke:#aa55ff;" x="368.000625" xlink:href="#m57b23bd4c7" y="264.86478"/>
     <use style="fill-opacity:0;stroke:#aa55ff;" x="432.66875" xlink:href="#m57b23bd4c7" y="264.818689"/>
     <use style="fill-opacity:0;stroke:#aa55ff;" x="497.336875" xlink:href="#m57b23bd4c7" y="265.940472"/>
     <use style="fill-opacity:0;stroke:#aa55ff;" x="562.005" xlink:href="#m57b23bd4c7" y="266.626869"/>
    </g>
   </g>
   <g id="line2d_48">
    <path clip-path="url(#p5a5d954a08)" d="M 44.66 239.163895 
L 109.328125 292.427826 
L 173.99625 284.519637 
L 238.664375 290.438666 
L 303.3325 289.385815 
L 368.000625 286.371741 
L 432.66875 288.054193 
L 497.336875 292.896292 
L 562.005 293.316526 
" style="fill:none;stroke:#ffaa00;stroke-dasharray:6.4,1.6,1,1.6;stroke-dashoffset:0;"/>
   </g>
   <g id="line2d_49">
    <path clip-path="url(#p5a5d954a08)" d="M 44.66 162.892171 
L 109.328125 202.535531 
L 173.99625 254.623438 
L 238.664375 225.320991 
L 303.3325 264.224143 
L 368.000625 265.64467 
L 432.66875 266.980098 
L 497.336875 269.090788 
" style="fill:none;stroke:#ff00ff;stroke-dasharray:1.5,2.475;stroke-dashoffset:0;stroke-width:1.5;"/>
    <defs>
     <path d="M 0 1.5 
C 0.397805 1.5 0.77937 1.341951 1.06066 1.06066 
C 1.341951 0.77937 1.5 0.397805 1.5 0 
C 1.5 -0.397805 1.341951 -0.77937 1.06066 -1.06066 
C 0.77937 -1.341951 0.397805 -1.5 0 -1.5 
C -0.397805 -1.5 -0.77937 -1.341951 -1.06066 -1.06066 
C -1.341951 -0.77937 -1.5 -0.397805 -1.5 0 
C -1.5 0.397805 -1.341951 0.77937 -1.06066 1.06066 
C -0.77937 1.341951 -0.397805 1.5 0 1.5 
z
" id="mc4111770a2" style="stroke:#ff00ff;"/>
    </defs>
    <g clip-path="url(#p5a5d954a08)">
     <use style="fill-opacity:0;stroke:#ff00ff;" x="44.66" xlink:href="#mc4111770a2" y="162.892171"/>
     <use style="fill-opacity:0;stroke:#ff00ff;" x="109.328125" xlink:href="#mc4111770a2" y="202.535531"/>
     <use style="fill-opacity:0;stroke:#ff00ff;" x="173.99625" xlink:href="#mc4111770a2" y="254.623438"/>
     <use style="fill-opacity:0;stroke:#ff00ff;" x="238.664375" xlink:href="#mc4111770a2" y="225.320991"/>
     <use style="fill-opacity:0;stroke:#ff00ff;" x="303.3325" xlink:href="#mc4111770a2" y="264.224143"/>
     <use style="fill-opacity:0;stroke:#ff00ff;" x="368.000625" xlink:href="#mc4111770a2" y="265.64467"/>
     <use style="fill-opacity:0;stroke:#ff00ff;" x="432.66875" xlink:href="#mc4111770a2" y="266.980098"/>
     <use style="fill-opacity:0;stroke:#ff00ff;" x="497.336875" xlink:href="#mc4111770a2" y="269.090788"/>
    </g>
   </g>
   <g id="line2d_50">
    <path clip-path="url(#p5a5d954a08)" d="M 44.66 271.711762 
L 109.328125 195.269332 
L 173.99625 226.811895 
L 238.664375 282.154946 
L 303.3325 287.395917 
L 368.000625 290.598098 
L 432.66875 293.190302 
L 497.336875 292.265228 
" style="fill:none;stroke:#ffff00;stroke-dasharray:1,1.65;stroke-dashoffset:0;"/>
   </g>
   <g id="patch_3">
    <path d="M 44.66 318.04 
L 44.66 26.88 
" style="fill:none;stroke:#000000;stroke-linecap:square;stroke-linejoin:miter;stroke-width:0.8;"/>
   </g>
   <g id="patch_4">
    <path d="M 562.005 318.04 
L 562.005 26.88 
" style="fill:none;stroke:#000000;stroke-linecap:square;stroke-linejoin:miter;stroke-width:0.8;"/>
   </g>
   <g id="patch_5">
    <path d="M 44.66 318.04 
L 562.005 318.04 
" style="fill:none;stroke:#000000;stroke-linecap:square;stroke-linejoin:miter;stroke-width:0.8;"/>
   </g>
   <g id="patch_6">
    <path d="M 44.66 26.88 
L 562.005 26.88 
" style="fill:none;stroke:#000000;stroke-linecap:square;stroke-linejoin:miter;stroke-width:0.8;"/>
   </g>
   <g id="text_24">
    <!-- Relative spread between function performances -->
    <defs>
     <path d="M 44.390625 34.1875 
Q 47.5625 33.109375 50.5625 29.59375 
Q 53.5625 26.078125 56.59375 19.921875 
L 66.609375 0 
L 56 0 
L 46.6875 18.703125 
Q 43.0625 26.03125 39.671875 28.421875 
Q 36.28125 30.8125 30.421875 30.8125 
L 19.671875 30.8125 
L 19.671875 0 
L 9.8125 0 
L 9.8125 72.90625 
L 32.078125 72.90625 
Q 44.578125 72.90625 50.734375 67.671875 
Q 56.890625 62.453125 56.890625 51.90625 
Q 56.890625 45.015625 53.6875 40.46875 
Q 50.484375 35.9375 44.390625 34.1875 
z
M 19.671875 64.796875 
L 19.671875 38.921875 
L 32.078125 38.921875 
Q 39.203125 38.921875 42.84375 42.21875 
Q 46.484375 45.515625 46.484375 51.90625 
Q 46.484375 58.296875 42.84375 61.546875 
Q 39.203125 64.796875 32.078125 64.796875 
z
" id="DejaVuSans-82"/>
     <path d="M 9.421875 75.984375 
L 18.40625 75.984375 
L 18.40625 0 
L 9.421875 0 
z
" id="DejaVuSans-108"/>
     <path d="M 2.984375 54.6875 
L 12.5 54.6875 
L 29.59375 8.796875 
L 46.6875 54.6875 
L 56.203125 54.6875 
L 35.6875 0 
L 23.484375 0 
z
" id="DejaVuSans-118"/>
     <path d="M 4.203125 54.6875 
L 13.1875 54.6875 
L 24.421875 12.015625 
L 35.59375 54.6875 
L 46.1875 54.6875 
L 57.421875 12.015625 
L 68.609375 54.6875 
L 77.59375 54.6875 
L 63.28125 0 
L 52.6875 0 
L 40.921875 44.828125 
L 29.109375 0 
L 18.5 0 
z
" id="DejaVuSans-119"/>
    </defs>
    <g transform="translate(158.5525 20.88)scale(0.12 -0.12)">
     <use xlink:href="#DejaVuSans-82"/>
     <use x="69.419922" xlink:href="#DejaVuSans-101"/>
     <use x="130.943359" xlink:href="#DejaVuSans-108"/>
     <use x="158.726562" xlink:href="#DejaVuSans-97"/>
     <use x="220.005859" xlink:href="#DejaVuSans-116"/>
     <use x="259.214844" xlink:href="#DejaVuSans-105"/>
     <use x="286.998047" xlink:href="#DejaVuSans-118"/>
     <use x="346.177734" xlink:href="#DejaVuSans-101"/>
     <use x="407.701172" xlink:href="#DejaVuSans-32"/>
     <use x="439.488281" xlink:href="#DejaVuSans-115"/>
     <use x="491.587891" xlink:href="#DejaVuSans-112"/>
     <use x="555.064453" xlink:href="#DejaVuSans-114"/>
     <use x="596.146484" xlink:href="#DejaVuSans-101"/>
     <use x="657.669922" xlink:href="#DejaVuSans-97"/>
     <use x="718.949219" xlink:href="#DejaVuSans-100"/>
     <use x="782.425781" xlink:href="#DejaVuSans-32"/>
     <use x="814.212891" xlink:href="#DejaVuSans-98"/>
     <use x="877.689453" xlink:href="#DejaVuSans-101"/>
     <use x="939.212891" xlink:href="#DejaVuSans-116"/>
     <use x="978.421875" xlink:href="#DejaVuSans-119"/>
     <use x="1060.208984" xlink:href="#DejaVuSans-101"/>
     <use x="1121.732422" xlink:href="#DejaVuSans-101"/>
     <use x="1183.255859" xlink:href="#DejaVuSans-110"/>
     <use x="1246.634766" xlink:href="#DejaVuSans-32"/>
     <use x="1278.421875" xlink:href="#DejaVuSans-102"/>
     <use x="1313.626953" xlink:href="#DejaVuSans-117"/>
     <use x="1377.005859" xlink:href="#DejaVuSans-110"/>
     <use x="1440.384766" xlink:href="#DejaVuSans-99"/>
     <use x="1495.365234" xlink:href="#DejaVuSans-116"/>
     <use x="1534.574219" xlink:href="#DejaVuSans-105"/>
     <use x="1562.357422" xlink:href="#DejaVuSans-111"/>
     <use x="1623.539062" xlink:href="#DejaVuSans-110"/>
     <use x="1686.917969" xlink:href="#DejaVuSans-32"/>
     <use x="1718.705078" xlink:href="#DejaVuSans-112"/>
     <use x="1782.181641" xlink:href="#DejaVuSans-101"/>
     <use x="1843.705078" xlink:href="#DejaVuSans-114"/>
     <use x="1884.818359" xlink:href="#DejaVuSans-102"/>
     <use x="1920.023438" xlink:href="#DejaVuSans-111"/>
     <use x="1981.205078" xlink:href="#DejaVuSans-114"/>
     <use x="2022.302734" xlink:href="#DejaVuSans-109"/>
     <use x="2119.714844" xlink:href="#DejaVuSans-97"/>
     <use x="2180.994141" xlink:href="#DejaVuSans-110"/>
     <use x="2244.373047" xlink:href="#DejaVuSans-99"/>
     <use x="2299.353516" xlink:href="#DejaVuSans-101"/>
     <use x="2360.876953" xlink:href="#DejaVuSans-115"/>
    </g>
   </g>
   <g id="legend_1">
    <g id="patch_7">
     <path d="M 425.873277 131.359025 
L 556.174 131.359025 
Q 557.84 131.359025 557.84 129.693025 
L 557.84 32.711 
Q 557.84 31.045 556.174 31.045 
L 425.873277 31.045 
Q 424.207277 31.045 424.207277 32.711 
L 424.207277 129.693025 
Q 424.207277 131.359025 425.873277 131.359025 
z
" style="fill:#ffffff;opacity:0.8;stroke:#cccccc;stroke-linejoin:miter;"/>
    </g>
    <g id="line2d_51">
     <path d="M 427.539277 37.790998 
L 444.199277 37.790998 
" style="fill:none;stroke:#00ffff;stroke-linecap:square;stroke-width:1.5;"/>
    </g>
    <g id="line2d_52">
     <g>
      <use style="fill-opacity:0;stroke:#00ffff;" x="435.869277" xlink:href="#m151769ce6c" y="37.790998"/>
     </g>
    </g>
    <g id="text_25">
     <!-- consumer gpu activation -->
     <defs>
      <path d="M 45.40625 27.984375 
Q 45.40625 37.75 41.375 43.109375 
Q 37.359375 48.484375 30.078125 48.484375 
Q 22.859375 48.484375 18.828125 43.109375 
Q 14.796875 37.75 14.796875 27.984375 
Q 14.796875 18.265625 18.828125 12.890625 
Q 22.859375 7.515625 30.078125 7.515625 
Q 37.359375 7.515625 41.375 12.890625 
Q 45.40625 18.265625 45.40625 27.984375 
z
M 54.390625 6.78125 
Q 54.390625 -7.171875 48.1875 -13.984375 
Q 42 -20.796875 29.203125 -20.796875 
Q 24.46875 -20.796875 20.265625 -20.09375 
Q 16.0625 -19.390625 12.109375 -17.921875 
L 12.109375 -9.1875 
Q 16.0625 -11.328125 19.921875 -12.34375 
Q 23.78125 -13.375 27.78125 -13.375 
Q 36.625 -13.375 41.015625 -8.765625 
Q 45.40625 -4.15625 45.40625 5.171875 
L 45.40625 9.625 
Q 42.625 4.78125 38.28125 2.390625 
Q 33.9375 0 27.875 0 
Q 17.828125 0 11.671875 7.65625 
Q 5.515625 15.328125 5.515625 27.984375 
Q 5.515625 40.671875 11.671875 48.328125 
Q 17.828125 56 27.875 56 
Q 33.9375 56 38.28125 53.609375 
Q 42.625 51.21875 45.40625 46.390625 
L 45.40625 54.6875 
L 54.390625 54.6875 
z
" id="DejaVuSans-103"/>
     </defs>
     <g transform="translate(450.863277 40.706498)scale(0.0833 -0.0833)">
      <use xlink:href="#DejaVuSans-99"/>
      <use x="54.980469" xlink:href="#DejaVuSans-111"/>
      <use x="116.162109" xlink:href="#DejaVuSans-110"/>
      <use x="179.541016" xlink:href="#DejaVuSans-115"/>
      <use x="231.640625" xlink:href="#DejaVuSans-117"/>
      <use x="295.019531" xlink:href="#DejaVuSans-109"/>
      <use x="392.431641" xlink:href="#DejaVuSans-101"/>
      <use x="453.955078" xlink:href="#DejaVuSans-114"/>
      <use x="495.068359" xlink:href="#DejaVuSans-32"/>
      <use x="526.855469" xlink:href="#DejaVuSans-103"/>
      <use x="590.332031" xlink:href="#DejaVuSans-112"/>
      <use x="653.808594" xlink:href="#DejaVuSans-117"/>
      <use x="717.1875" xlink:href="#DejaVuSans-32"/>
      <use x="748.974609" xlink:href="#DejaVuSans-97"/>
      <use x="810.253906" xlink:href="#DejaVuSans-99"/>
      <use x="865.234375" xlink:href="#DejaVuSans-116"/>
      <use x="904.443359" xlink:href="#DejaVuSans-105"/>
      <use x="932.226562" xlink:href="#DejaVuSans-118"/>
      <use x="991.40625" xlink:href="#DejaVuSans-97"/>
      <use x="1052.685547" xlink:href="#DejaVuSans-116"/>
      <use x="1091.894531" xlink:href="#DejaVuSans-105"/>
      <use x="1119.677734" xlink:href="#DejaVuSans-111"/>
      <use x="1180.859375" xlink:href="#DejaVuSans-110"/>
     </g>
    </g>
    <g id="line2d_53">
     <path d="M 427.539277 50.017877 
L 444.199277 50.017877 
" style="fill:none;stroke:#ff0000;stroke-linecap:square;"/>
    </g>
    <g id="line2d_54"/>
    <g id="text_26">
     <!-- consumer gpu dropout -->
     <g transform="translate(450.863277 52.933377)scale(0.0833 -0.0833)">
      <use xlink:href="#DejaVuSans-99"/>
      <use x="54.980469" xlink:href="#DejaVuSans-111"/>
      <use x="116.162109" xlink:href="#DejaVuSans-110"/>
      <use x="179.541016" xlink:href="#DejaVuSans-115"/>
      <use x="231.640625" xlink:href="#DejaVuSans-117"/>
      <use x="295.019531" xlink:href="#DejaVuSans-109"/>
      <use x="392.431641" xlink:href="#DejaVuSans-101"/>
      <use x="453.955078" xlink:href="#DejaVuSans-114"/>
      <use x="495.068359" xlink:href="#DejaVuSans-32"/>
      <use x="526.855469" xlink:href="#DejaVuSans-103"/>
      <use x="590.332031" xlink:href="#DejaVuSans-112"/>
      <use x="653.808594" xlink:href="#DejaVuSans-117"/>
      <use x="717.1875" xlink:href="#DejaVuSans-32"/>
      <use x="748.974609" xlink:href="#DejaVuSans-100"/>
      <use x="812.451172" xlink:href="#DejaVuSans-114"/>
      <use x="853.533203" xlink:href="#DejaVuSans-111"/>
      <use x="914.714844" xlink:href="#DejaVuSans-112"/>
      <use x="978.191406" xlink:href="#DejaVuSans-111"/>
      <use x="1039.373047" xlink:href="#DejaVuSans-117"/>
      <use x="1102.751953" xlink:href="#DejaVuSans-116"/>
     </g>
    </g>
    <g id="line2d_55">
     <path d="M 427.539277 62.244755 
L 444.199277 62.244755 
" style="fill:none;stroke:#55aaff;stroke-dasharray:5.55,2.4;stroke-dashoffset:0;stroke-width:1.5;"/>
    </g>
    <g id="line2d_56">
     <g>
      <use style="fill-opacity:0;stroke:#55aaff;" x="435.869277" xlink:href="#mdb9aff46bc" y="62.244755"/>
     </g>
    </g>
    <g id="text_27">
     <!-- dc gpu activation -->
     <g transform="translate(450.863277 65.160255)scale(0.0833 -0.0833)">
      <use xlink:href="#DejaVuSans-100"/>
      <use x="63.476562" xlink:href="#DejaVuSans-99"/>
      <use x="118.457031" xlink:href="#DejaVuSans-32"/>
      <use x="150.244141" xlink:href="#DejaVuSans-103"/>
      <use x="213.720703" xlink:href="#DejaVuSans-112"/>
      <use x="277.197266" xlink:href="#DejaVuSans-117"/>
      <use x="340.576172" xlink:href="#DejaVuSans-32"/>
      <use x="372.363281" xlink:href="#DejaVuSans-97"/>
      <use x="433.642578" xlink:href="#DejaVuSans-99"/>
      <use x="488.623047" xlink:href="#DejaVuSans-116"/>
      <use x="527.832031" xlink:href="#DejaVuSans-105"/>
      <use x="555.615234" xlink:href="#DejaVuSans-118"/>
      <use x="614.794922" xlink:href="#DejaVuSans-97"/>
      <use x="676.074219" xlink:href="#DejaVuSans-116"/>
      <use x="715.283203" xlink:href="#DejaVuSans-105"/>
      <use x="743.066406" xlink:href="#DejaVuSans-111"/>
      <use x="804.248047" xlink:href="#DejaVuSans-110"/>
     </g>
    </g>
    <g id="line2d_57">
     <path d="M 427.539277 74.471633 
L 444.199277 74.471633 
" style="fill:none;stroke:#ff5500;stroke-dasharray:3.7,1.6;stroke-dashoffset:0;"/>
    </g>
    <g id="line2d_58"/>
    <g id="text_28">
     <!-- dc gpu dropout -->
     <g transform="translate(450.863277 77.387133)scale(0.0833 -0.0833)">
      <use xlink:href="#DejaVuSans-100"/>
      <use x="63.476562" xlink:href="#DejaVuSans-99"/>
      <use x="118.457031" xlink:href="#DejaVuSans-32"/>
      <use x="150.244141" xlink:href="#DejaVuSans-103"/>
      <use x="213.720703" xlink:href="#DejaVuSans-112"/>
      <use x="277.197266" xlink:href="#DejaVuSans-117"/>
      <use x="340.576172" xlink:href="#DejaVuSans-32"/>
      <use x="372.363281" xlink:href="#DejaVuSans-100"/>
      <use x="435.839844" xlink:href="#DejaVuSans-114"/>
      <use x="476.921875" xlink:href="#DejaVuSans-111"/>
      <use x="538.103516" xlink:href="#DejaVuSans-112"/>
      <use x="601.580078" xlink:href="#DejaVuSans-111"/>
      <use x="662.761719" xlink:href="#DejaVuSans-117"/>
      <use x="726.140625" xlink:href="#DejaVuSans-116"/>
     </g>
    </g>
    <g id="line2d_59">
     <path d="M 427.539277 86.698511 
L 444.199277 86.698511 
" style="fill:none;stroke:#aa55ff;stroke-dasharray:9.6,2.4,1.5,2.4;stroke-dashoffset:0;stroke-width:1.5;"/>
    </g>
    <g id="line2d_60">
     <g>
      <use style="fill-opacity:0;stroke:#aa55ff;" x="435.869277" xlink:href="#m57b23bd4c7" y="86.698511"/>
     </g>
    </g>
    <g id="text_29">
     <!-- dc cpu activation -->
     <g transform="translate(450.863277 89.614011)scale(0.0833 -0.0833)">
      <use xlink:href="#DejaVuSans-100"/>
      <use x="63.476562" xlink:href="#DejaVuSans-99"/>
      <use x="118.457031" xlink:href="#DejaVuSans-32"/>
      <use x="150.244141" xlink:href="#DejaVuSans-99"/>
      <use x="205.224609" xlink:href="#DejaVuSans-112"/>
      <use x="268.701172" xlink:href="#DejaVuSans-117"/>
      <use x="332.080078" xlink:href="#DejaVuSans-32"/>
      <use x="363.867188" xlink:href="#DejaVuSans-97"/>
      <use x="425.146484" xlink:href="#DejaVuSans-99"/>
      <use x="480.126953" xlink:href="#DejaVuSans-116"/>
      <use x="519.335938" xlink:href="#DejaVuSans-105"/>
      <use x="547.119141" xlink:href="#DejaVuSans-118"/>
      <use x="606.298828" xlink:href="#DejaVuSans-97"/>
      <use x="667.578125" xlink:href="#DejaVuSans-116"/>
      <use x="706.787109" xlink:href="#DejaVuSans-105"/>
      <use x="734.570312" xlink:href="#DejaVuSans-111"/>
      <use x="795.751953" xlink:href="#DejaVuSans-110"/>
     </g>
    </g>
    <g id="line2d_61">
     <path d="M 427.539277 98.925389 
L 444.199277 98.925389 
" style="fill:none;stroke:#ffaa00;stroke-dasharray:6.4,1.6,1,1.6;stroke-dashoffset:0;"/>
    </g>
    <g id="line2d_62"/>
    <g id="text_30">
     <!-- dc cpu dropout -->
     <g transform="translate(450.863277 101.840889)scale(0.0833 -0.0833)">
      <use xlink:href="#DejaVuSans-100"/>
      <use x="63.476562" xlink:href="#DejaVuSans-99"/>
      <use x="118.457031" xlink:href="#DejaVuSans-32"/>
      <use x="150.244141" xlink:href="#DejaVuSans-99"/>
      <use x="205.224609" xlink:href="#DejaVuSans-112"/>
      <use x="268.701172" xlink:href="#DejaVuSans-117"/>
      <use x="332.080078" xlink:href="#DejaVuSans-32"/>
      <use x="363.867188" xlink:href="#DejaVuSans-100"/>
      <use x="427.34375" xlink:href="#DejaVuSans-114"/>
      <use x="468.425781" xlink:href="#DejaVuSans-111"/>
      <use x="529.607422" xlink:href="#DejaVuSans-112"/>
      <use x="593.083984" xlink:href="#DejaVuSans-111"/>
      <use x="654.265625" xlink:href="#DejaVuSans-117"/>
      <use x="717.644531" xlink:href="#DejaVuSans-116"/>
     </g>
    </g>
    <g id="line2d_63">
     <path d="M 427.539277 111.152267 
L 444.199277 111.152267 
" style="fill:none;stroke:#ff00ff;stroke-dasharray:1.5,2.475;stroke-dashoffset:0;stroke-width:1.5;"/>
    </g>
    <g id="line2d_64">
     <g>
      <use style="fill-opacity:0;stroke:#ff00ff;" x="435.869277" xlink:href="#mc4111770a2" y="111.152267"/>
     </g>
    </g>
    <g id="text_31">
     <!-- consumer cpu activation -->
     <g transform="translate(450.863277 114.067767)scale(0.0833 -0.0833)">
      <use xlink:href="#DejaVuSans-99"/>
      <use x="54.980469" xlink:href="#DejaVuSans-111"/>
      <use x="116.162109" xlink:href="#DejaVuSans-110"/>
      <use x="179.541016" xlink:href="#DejaVuSans-115"/>
      <use x="231.640625" xlink:href="#DejaVuSans-117"/>
      <use x="295.019531" xlink:href="#DejaVuSans-109"/>
      <use x="392.431641" xlink:href="#DejaVuSans-101"/>
      <use x="453.955078" xlink:href="#DejaVuSans-114"/>
      <use x="495.068359" xlink:href="#DejaVuSans-32"/>
      <use x="526.855469" xlink:href="#DejaVuSans-99"/>
      <use x="581.835938" xlink:href="#DejaVuSans-112"/>
      <use x="645.3125" xlink:href="#DejaVuSans-117"/>
      <use x="708.691406" xlink:href="#DejaVuSans-32"/>
      <use x="740.478516" xlink:href="#DejaVuSans-97"/>
      <use x="801.757812" xlink:href="#DejaVuSans-99"/>
      <use x="856.738281" xlink:href="#DejaVuSans-116"/>
      <use x="895.947266" xlink:href="#DejaVuSans-105"/>
      <use x="923.730469" xlink:href="#DejaVuSans-118"/>
      <use x="982.910156" xlink:href="#DejaVuSans-97"/>
      <use x="1044.189453" xlink:href="#DejaVuSans-116"/>
      <use x="1083.398438" xlink:href="#DejaVuSans-105"/>
      <use x="1111.181641" xlink:href="#DejaVuSans-111"/>
      <use x="1172.363281" xlink:href="#DejaVuSans-110"/>
     </g>
    </g>
    <g id="line2d_65">
     <path d="M 427.539277 123.379145 
L 444.199277 123.379145 
" style="fill:none;stroke:#ffff00;stroke-dasharray:1,1.65;stroke-dashoffset:0;"/>
    </g>
    <g id="line2d_66"/>
    <g id="text_32">
     <!-- consumer cpu dropout -->
     <g transform="translate(450.863277 126.294645)scale(0.0833 -0.0833)">
      <use xlink:href="#DejaVuSans-99"/>
      <use x="54.980469" xlink:href="#DejaVuSans-111"/>
      <use x="116.162109" xlink:href="#DejaVuSans-110"/>
      <use x="179.541016" xlink:href="#DejaVuSans-115"/>
      <use x="231.640625" xlink:href="#DejaVuSans-117"/>
      <use x="295.019531" xlink:href="#DejaVuSans-109"/>
      <use x="392.431641" xlink:href="#DejaVuSans-101"/>
      <use x="453.955078" xlink:href="#DejaVuSans-114"/>
      <use x="495.068359" xlink:href="#DejaVuSans-32"/>
      <use x="526.855469" xlink:href="#DejaVuSans-99"/>
      <use x="581.835938" xlink:href="#DejaVuSans-112"/>
      <use x="645.3125" xlink:href="#DejaVuSans-117"/>
      <use x="708.691406" xlink:href="#DejaVuSans-32"/>
      <use x="740.478516" xlink:href="#DejaVuSans-100"/>
      <use x="803.955078" xlink:href="#DejaVuSans-114"/>
      <use x="845.037109" xlink:href="#DejaVuSans-111"/>
      <use x="906.21875" xlink:href="#DejaVuSans-112"/>
      <use x="969.695312" xlink:href="#DejaVuSans-111"/>
      <use x="1030.876953" xlink:href="#DejaVuSans-117"/>
      <use x="1094.255859" xlink:href="#DejaVuSans-116"/>
     </g>
    </g>
   </g>
  </g>
 </g>
 <defs>
  <clipPath id="p5a5d954a08">
   <rect height="291.16" width="517.345" x="44.66" y="26.88"/>
  </clipPath>
 </defs>
</svg>
